<?xml version="1.0" encoding="UTF-8"?>
<svg version="1.1" xmlns="http://www.w3.org/2000/svg" width="1280" height="1280">
<path d="M0 0 C4.25312687 3.73759634 6.13229383 9.04270561 8.29296875 14.1640625 C8.92874753 15.65182801 9.56465848 17.13953705 10.20068359 18.62719727 C10.53380554 19.40974884 10.86692749 20.19230042 11.21014404 20.99856567 C27.63072368 59.51228006 45.09467436 97.62955837 65.58642578 134.17236328 C67.17426657 137.01240799 68.74207955 139.86298456 70.30859375 142.71484375 C85.61562537 170.46597394 102.23794188 197.6057612 120.0625 223.8125 C120.51915039 224.48780762 120.97580078 225.16311523 121.44628906 225.85888672 C129.43638912 237.67067152 137.64593326 249.30131738 146.0625 260.8125 C146.62582031 261.5859375 147.18914063 262.359375 147.76953125 263.15625 C159.10660806 278.71594007 170.78727424 293.97993554 183.0625 308.8125 C184.50018741 310.58318118 185.93768202 312.35401892 187.375 314.125 C195.03561719 323.48352013 202.9313223 332.63775856 211.05859375 341.59375 C212.87561982 343.60558393 214.66194392 345.63910434 216.4375 347.6875 C220.70581636 352.57949729 225.09572711 357.35879897 229.50390625 362.12451172 C230.53493238 363.24113369 231.56362037 364.35991954 232.58984375 365.48095703 C241.48090077 375.18961437 250.70216527 384.55824308 260 393.875 C260.87906006 394.75794235 260.87906006 394.75794235 261.77587891 395.65872192 C270.36186946 404.28344065 270.36186946 404.28344065 279.42993164 412.39428711 C281.22821021 413.95645254 282.8950291 415.612125 284.5625 417.3125 C287.55122337 420.34844925 290.67956479 423.15758659 293.90625 425.9375 C296.26212958 427.98609094 298.5675746 430.08453002 300.875 432.1875 C305.14560151 436.04272386 309.55023669 439.68832515 314.0234375 443.3046875 C317.5330821 446.20082096 320.95263056 449.18936588 324.375 452.1875 C330.87872422 457.86598323 337.55662921 463.26532138 344.39794922 468.53027344 C345.98985748 469.75654246 347.57517342 470.9913552 349.16015625 472.2265625 C379.72239053 495.9499656 411.66955855 518.24028753 445.0625 537.8125 C466.72136154 518.18415673 478.02514797 484.21082246 479.4453125 455.66015625 C480.28511595 426.10500831 472.31212498 398.41495061 454.8828125 374.45703125 C451.63667614 369.74107778 451.54104411 365.35889443 452.0625 359.8125 C453.29181584 356.31865498 454.39787127 354.41670794 457.125 351.9375 C461.52372162 350.25288321 465.41820285 350.09574233 470.0625 350.8125 C484.79562827 357.5328743 493.23068988 382.75303468 498.75 397.03125 C504.78735227 413.87967495 506.46530477 431.28887854 506.375 449.0625 C506.37284485 449.83007629 506.3706897 450.59765259 506.36846924 451.38848877 C506.31583313 463.0946982 505.8509231 474.3936043 503.0625 485.8125 C502.77246094 487.04250732 502.77246094 487.04250732 502.4765625 488.29736328 C496.32470412 513.6975131 484.49983752 535.6504456 468.0625 555.8125 C467.34964844 556.70324219 466.63679688 557.59398437 465.90234375 558.51171875 C461.23386736 564.09769917 457.65504697 567.01464226 450.296875 568.29296875 C439.71996682 569.19174543 432.5416706 564.32085334 424.0625 558.8125 C423.22992676 558.28172852 422.39735352 557.75095703 421.53955078 557.20410156 C415.74056018 553.5069657 409.99184615 549.73789504 404.26171875 545.93505859 C402.07105241 544.48163574 399.87886621 543.0308927 397.68359375 541.58447266 C384.3364886 532.78989044 371.08375348 523.9041345 358.22363281 514.40429688 C355.92531331 512.71145422 353.61585805 511.03462347 351.3046875 509.359375 C341.53622826 502.25521917 332.05362287 494.88655516 322.74316406 487.19335938 C320.4756129 485.33030455 318.17668653 483.50812664 315.875 481.6875 C310.41712574 477.33213457 305.09870937 472.81510781 299.78759766 468.28320312 C298.04202584 466.7950451 296.29266685 465.31142806 294.54296875 463.828125 C287.8937022 458.17652327 281.36890746 452.42148099 274.9765625 446.48046875 C272.72249297 444.4167563 270.44870319 442.39328348 268.14453125 440.38671875 C254.85022544 428.78779632 242.41708935 416.27151421 229.9375 403.8125 C229.20749786 403.08508606 228.47749573 402.35767212 227.72537231 401.60821533 C225.60299634 399.4917672 223.4844668 397.37154563 221.3671875 395.25 C220.73537064 394.62016205 220.10355377 393.9903241 219.45259094 393.34140015 C215.67547168 389.54491137 212.0938262 385.62721017 208.5920105 381.57559204 C206.91404258 379.64137068 205.1845543 377.76772435 203.4140625 375.91796875 C202.5017688 374.958302 202.5017688 374.958302 201.57104492 373.97924805 C200.9494751 373.32609619 200.32790527 372.67294434 199.6875 372 C194.60514462 366.623485 189.77855846 361.1737441 185.16796875 355.38671875 C182.89049154 352.60219652 180.49937992 349.95836197 178.0625 347.3125 C173.16743872 341.98618912 168.6007098 336.44309305 164.0625 330.8125 C162.6049923 329.04098705 161.14665078 327.27015983 159.6875 325.5 C144.13917208 306.47270026 129.25519837 286.86951434 115.0625 266.8125 C114.1348584 265.50224854 114.1348584 265.50224854 113.18847656 264.16552734 C103.13865582 249.93119936 93.47393125 235.47576215 84.0625 220.8125 C83.54768066 220.01457031 83.03286133 219.21664062 82.50244141 218.39453125 C51.01606815 169.54244341 23.43129266 117.86208233 -0.6875 65 C-1.01218262 64.29187164 -1.33686523 63.58374329 -1.67138672 62.85415649 C-2.57449479 60.87854954 -3.46884692 58.89927287 -4.359375 56.91796875 C-4.86049805 55.80574951 -5.36162109 54.69353027 -5.87792969 53.54760742 C-6.9375 50.8125 -6.9375 50.8125 -6.9375 47.8125 C-7.5975 47.8125 -8.2575 47.8125 -8.9375 47.8125 C-9.03450195 48.48192627 -9.13150391 49.15135254 -9.23144531 49.84106445 C-10.11715799 53.56859178 -11.6297284 56.89609749 -13.234375 60.35546875 C-13.5753421 61.09997284 -13.9163092 61.84447693 -14.26760864 62.61154175 C-15.40070894 65.0775931 -16.54323439 67.53911114 -17.6875 70 C-18.2782431 71.27579422 -18.2782431 71.27579422 -18.88092041 72.57736206 C-31.94595384 100.75827821 -45.60857696 128.78582964 -60.9375 155.8125 C-61.53836426 156.88000488 -62.13922852 157.94750977 -62.75830078 159.04736328 C-81.04871105 191.54231315 -100.66128348 223.18078402 -121.9375 253.8125 C-122.72568115 254.94824463 -122.72568115 254.94824463 -123.52978516 256.10693359 C-135.52956397 273.35348568 -148.08107595 290.19683942 -160.9375 306.8125 C-161.41815918 307.43495605 -161.89881836 308.05741211 -162.39404297 308.69873047 C-168.19621734 316.19929761 -174.16605724 323.52366777 -180.32421875 330.734375 C-182.71632269 333.5395732 -185.05205851 336.38713157 -187.375 339.25 C-195.18440496 348.82416373 -203.21908601 358.17993443 -211.6652832 367.19873047 C-214.29485358 370.00947477 -216.86662355 372.85887992 -219.39453125 375.76171875 C-230.97707892 389.05012556 -243.48935533 401.46879813 -255.9375 413.9375 C-256.66491394 414.66750214 -257.39232788 415.39750427 -258.14178467 416.14962769 C-260.2582328 418.27200366 -262.37845437 420.3905332 -264.5 422.5078125 C-265.12983795 423.13962936 -265.7596759 423.77144623 -266.40859985 424.42240906 C-270.20508863 428.19952832 -274.12278983 431.7811738 -278.17440796 435.2829895 C-280.10862932 436.96095742 -281.98227565 438.6904457 -283.83203125 440.4609375 C-284.47180908 441.0691333 -285.11158691 441.6773291 -285.77075195 442.30395508 C-286.42390381 442.9255249 -287.07705566 443.54709473 -287.75 444.1875 C-293.126515 449.26985538 -298.5762559 454.09644154 -304.36328125 458.70703125 C-307.14780348 460.98450846 -309.79163803 463.37562008 -312.4375 465.8125 C-317.76730108 470.70629479 -323.30585578 475.27270517 -328.9375 479.8125 C-330.16755016 480.82184094 -331.3966621 481.83232598 -332.625 482.84375 C-341.18701834 489.87873014 -349.89788523 496.6615243 -358.81298828 503.24267578 C-361.0344264 504.88411994 -363.24981964 506.53350671 -365.46484375 508.18359375 C-388.78666322 525.51685257 -412.8092251 541.73849692 -437.5 557.0625 C-438.73834595 557.83122437 -438.73834595 557.83122437 -440.00170898 558.61547852 C-442.30367127 560.03183428 -444.61769019 561.42561101 -446.9375 562.8125 C-447.71456299 563.29001709 -448.49162598 563.76753418 -449.29223633 564.25952148 C-456.52679061 568.54494842 -462.96284093 569.26799616 -471.23046875 567.25390625 C-489.155373 559.77625158 -502.96580053 530.4738861 -510.15283203 513.53515625 C-513.1651792 506.15426597 -515.73586327 498.69730534 -517.8125 491 C-518.00360352 490.29705811 -518.19470703 489.59411621 -518.39160156 488.86987305 C-521.64875175 475.91959759 -522.31602113 462.90121669 -522.25 449.625 C-522.24817719 448.86036438 -522.24635437 448.09572876 -522.24447632 447.30792236 C-522.19631739 435.27634844 -521.67092829 423.57682792 -518.9375 411.8125 C-518.77652832 411.10641602 -518.61555664 410.40033203 -518.44970703 409.67285156 C-514.3886142 392.62484417 -506.77355417 376.27483389 -496.9375 361.8125 C-496.3909375 361.00039063 -495.844375 360.18828125 -495.28125 359.3515625 C-492.63323492 355.60921465 -490.3628434 352.42171578 -485.9375 350.8125 C-481.34205335 350.27991512 -477.34623847 350.27298314 -473 351.9375 C-469.12264912 355.46236443 -467.76305097 359.10296939 -467.5 364.25 C-467.69338572 368.91446355 -469.35662705 372.01328199 -471.9375 375.8125 C-491.19642974 406.25799957 -500.30361907 439.38557333 -492.76757812 475.35058594 C-487.54150719 498.18624374 -477.93561796 521.22327147 -460.9375 537.8125 C-426.01796395 517.47011256 -392.44113914 494.1319626 -360.9375 468.8125 C-360.2971582 468.2983252 -359.65681641 467.78415039 -358.99707031 467.25439453 C-351.42220688 461.16045534 -343.9107078 454.99899398 -336.51489258 448.6887207 C-333.24232073 445.89954504 -329.92045616 443.18537584 -326.5625 440.5 C-320.57294244 435.63293639 -315.00484747 430.34339616 -309.39453125 425.05078125 C-306.21025971 422.05165174 -302.94144164 419.16826016 -299.625 416.31640625 C-297.23790066 414.18901448 -295.02106234 411.90751487 -292.78295898 409.62548828 C-291.12928319 408.00090878 -289.43573319 406.51528986 -287.66015625 405.02734375 C-281.45066671 399.62635917 -275.70815833 393.73185927 -269.90112305 387.90649414 C-267.87985732 385.8798702 -265.85330426 383.85864453 -263.82617188 381.83789062 C-255.29723722 373.34803689 -255.29723722 373.34803689 -247.28540039 364.37475586 C-245.75089014 362.59621373 -244.11419129 360.95690054 -242.4375 359.3125 C-239.42336418 356.34514677 -236.63832667 353.23904708 -233.87890625 350.03515625 C-231.64945939 347.48273117 -229.35748618 344.99362486 -227.0625 342.5 C-222.99209944 338.03727168 -219.13573091 333.44992 -215.34375 328.75 C-212.63970613 325.44895943 -209.85620475 322.22501355 -207.0625 319 C-202.09937298 313.25131947 -197.36384976 307.35751006 -192.70703125 301.359375 C-190.85377439 298.97426827 -188.97667847 296.61167008 -187.07421875 294.265625 C-179.65140279 285.11176728 -172.59849079 275.72278646 -165.66796875 266.19140625 C-164.01259345 263.9157323 -162.3505813 261.64504528 -160.6875 259.375 C-108.28199577 187.60311586 -65.31134968 109.52411991 -30.14453125 28.03515625 C-29.84393799 27.33917328 -29.54334473 26.64319031 -29.23364258 25.92611694 C-27.81910534 22.64940595 -26.40905729 19.37093457 -25.00927734 16.08789062 C-24.26798584 14.36022461 -24.26798584 14.36022461 -23.51171875 12.59765625 C-23.08463623 11.59613525 -22.65755371 10.59461426 -22.2175293 9.56274414 C-17.66804043 -0.21219235 -10.59230763 -4.2819967 0 0 Z " fill="#F5C815" transform="translate(647.9375,147.1875)"/>
<path d="M0 0 C0.79019531 -0.020625 1.58039062 -0.04125 2.39453125 -0.0625 C8.10782657 -0.10052526 12.19319639 0.80474266 16.71939468 4.57979757 C21.515948 10.27927446 20.78537393 21.82949922 21.41503906 28.92817688 C21.52967625 30.17147127 21.64431343 31.41476566 21.76242447 32.69573563 C22.07811079 36.12105364 22.38713754 39.54694376 22.69501686 42.97297108 C23.02920764 46.67842991 23.36966848 50.38331337 23.70935059 54.08827209 C24.2966803 60.50365964 24.88008921 66.91939392 25.46081543 73.33538246 C26.30252055 82.6345624 27.15030754 91.93318016 27.99955225 101.23167422 C29.38018378 116.3501152 30.75607235 131.46898387 32.12890625 146.58813477 C33.45734458 161.21822676 34.78777655 175.84813499 36.12109375 190.4777832 C36.20307337 191.37730315 36.285053 192.27682309 36.36951685 193.20360122 C36.86277898 198.61569901 37.35612491 204.02778916 37.84950352 209.43987633 C38.57130738 217.35771117 39.29301703 225.27555459 40.01464844 233.19340515 C40.09246221 234.04716166 40.17027598 234.90091817 40.25044775 235.78054609 C41.32189607 247.53676792 42.39181029 259.29312842 43.46039963 271.04961045 C43.89005832 275.77627221 44.31992768 280.50291481 44.74977779 285.22955916 C45.08243628 288.88781366 45.4149259 292.54608334 45.74699402 296.20439148 C46.89832805 308.88760423 48.05016108 321.5707944 49.24316406 334.25016785 C49.32064754 335.08303859 49.39813103 335.91590933 49.47796249 336.77401859 C50.79726675 350.67269174 54.83008774 358.33287687 63.43701172 369.09960938 C66.25805601 372.6934419 68.90516658 376.40940438 71.5625 380.125 C72.65604749 381.64467699 73.74979846 383.16420759 74.84375 384.68359375 C75.93752052 386.20571442 77.03127062 387.72784977 78.125 389.25 C84.74446309 398.45193522 91.38964843 407.63242958 98.125 416.75 C105.40442622 426.60407821 112.57330324 436.53574334 119.72949219 446.47949219 C121.33965507 448.71610142 122.95073068 450.95204815 124.5625 453.1875 C125.08972656 453.91880127 125.61695313 454.65010254 126.16015625 455.40356445 C130.87689571 461.93262253 135.65475321 468.41602374 140.45678711 474.88256836 C143.46034902 478.93862677 146.37045233 483.02052338 149.125 487.25 C147.77268813 490.27977429 146.27019457 492.33472613 143.89453125 494.640625 C143.25580078 495.26839844 142.61707031 495.89617187 141.95898438 496.54296875 C141.29189453 497.18878906 140.62480469 497.83460938 139.9375 498.5 C136.0620198 502.27136282 132.25373807 506.03441289 128.73046875 510.140625 C123.85742114 515.80071422 118.47181108 520.94816224 113.15234375 526.18359375 C108.8902762 530.4046141 104.81841441 534.68968391 100.91210938 539.24023438 C96.77443836 543.8934185 92.23491768 548.17548362 87.796875 552.5390625 C84.29666703 556.00355406 80.87226344 559.47254799 77.6640625 563.2109375 C73.53045103 568.02117471 69.01738665 572.42819752 64.5 576.875 C59.46756889 581.8295297 54.51650461 586.71132683 50.125 592.25 C46.00762323 591.72941213 44.13497586 589.59887273 41.3125 586.6875 C40.50167969 585.86121094 39.69085937 585.03492188 38.85546875 584.18359375 C36.77147484 581.98153533 34.77306475 579.71476886 32.78515625 577.42578125 C29.09124689 573.1772098 25.25025589 569.08284203 21.375 565 C15.8315622 559.13579381 10.3372257 553.23487201 4.8984375 547.2734375 C1.66756224 543.74047894 -1.60449766 540.24623667 -4.875 536.75 C-9.22393926 532.0976188 -13.5653594 527.43884082 -17.875 522.75 C-19.1125 521.40421875 -19.1125 521.40421875 -20.375 520.03125 C-21.2 519.1134375 -22.025 518.195625 -22.875 517.25 C-23.6334073 516.61985756 -23.6334073 516.61985756 -24.40713596 515.97698498 C-28.48799826 512.21028462 -29.3260054 509.05323649 -29.60325623 503.55256653 C-29.64593555 500.75987412 -29.61170764 497.97151293 -29.57202148 495.17895508 C-29.57193391 493.61605671 -29.57448925 492.05315637 -29.57944107 490.49026585 C-29.58541641 486.17042451 -29.55367115 481.85154083 -29.51614356 477.53188848 C-29.48179724 472.79983335 -29.48276617 468.06776206 -29.47920227 463.33560181 C-29.46655646 453.90425642 -29.42164798 444.47331483 -29.36666232 435.0421319 C-29.30282681 423.88239573 -29.27003197 412.72263405 -29.23915696 401.56276572 C-29.19482541 385.7144974 -29.14182044 369.86628598 -29.07119751 354.01811218 C-28.90789977 317.16162827 -28.8295234 280.30560899 -28.79017136 243.44879252 C-28.77666771 230.85057269 -28.75868858 218.25236675 -28.73631287 205.65415955 C-28.73484156 204.82558377 -28.73337026 203.99700799 -28.73185437 203.14332386 C-28.71543016 193.95693628 -28.6979487 184.77055096 -28.67985821 175.58416653 C-28.67334702 172.2564183 -28.66687879 168.92866998 -28.66043091 165.60092163 C-28.65882818 164.77901826 -28.65722545 163.95711488 -28.65557415 163.11030535 C-28.63147367 150.63779941 -28.61665602 138.16530341 -28.60592651 125.69277954 C-28.59354041 111.38287854 -28.5665258 97.07308318 -28.52108914 82.76324749 C-28.49575212 74.64987593 -28.48175715 66.53666326 -28.48344534 58.42325136 C-28.48348174 52.32262278 -28.46272288 46.22225324 -28.43380463 40.12168539 C-28.42529294 37.6363995 -28.42360648 35.15107958 -28.42920482 32.66578543 C-28.43579585 29.29366671 -28.41805099 25.92254035 -28.39398193 22.55052185 C-28.40174221 21.56947263 -28.40950249 20.58842341 -28.41749793 19.57764542 C-28.36327439 15.31414099 -28.28153466 12.91072715 -26.00857925 9.21656895 C-23.60612396 7.00217078 -21.27072548 5.51150506 -18.375 4 C-17.4365625 3.49984375 -16.498125 2.9996875 -15.53125 2.484375 C-10.35852114 0.08057747 -5.61615856 0.03629182 0 0 Z " fill="#F5C815" transform="translate(678.875,463.75)"/>
<path d="M0 0 C1.16692383 -0.0309375 1.16692383 -0.0309375 2.35742188 -0.0625 C9.95629692 -0.11320142 15.90947278 1.9603871 22.1875 6.25 C23.29738281 6.9925 23.29738281 6.9925 24.4296875 7.75 C26.75994768 9.60647284 28.1838975 11.23662474 28.56730902 14.2578705 C28.56958734 15.03209106 28.57186567 15.80631162 28.57421303 16.60399342 C28.58541103 17.94816069 28.58541103 17.94816069 28.59683526 19.31948286 C28.59490068 20.30635775 28.5929661 21.29323263 28.5909729 22.31001282 C28.59676672 23.35938536 28.60256054 24.4087579 28.60852993 25.48992962 C28.62563452 29.0353906 28.62842151 32.58072166 28.63134766 36.1262207 C28.64063034 38.67314087 28.65077677 41.22005802 28.66172028 43.76697159 C28.68346906 49.30177232 28.69898159 54.83653691 28.70901871 60.37137032 C28.72382378 68.53042009 28.74998761 76.68940496 28.7784407 84.8484171 C28.83973714 102.5790889 28.88141734 120.30978971 28.92054189 138.04052183 C28.93901779 146.36025626 28.95972799 154.67998466 28.98076072 162.99971296 C29.04850164 189.79954969 29.11525561 216.59938771 29.16916731 243.3992563 C29.24091015 278.96661462 29.34469432 314.53337796 29.52391827 350.10036331 C29.53039627 351.38770164 29.53687428 352.67503997 29.54354858 354.00138855 C29.54996144 355.27486332 29.5563743 356.54833809 29.56298149 357.860403 C29.64064801 373.55277393 29.69365119 389.24523388 29.74115181 404.93772221 C29.77897547 417.13206334 29.83688884 429.32596984 29.92065012 441.52008325 C29.97513338 449.73545559 30.00437357 457.95066418 30.01279294 466.16621226 C30.01831938 470.8252248 30.03500047 475.48345547 30.083004 480.14224052 C30.12620676 484.34840592 30.13736489 488.55336733 30.12250781 492.75971735 C30.12286081 494.26957083 30.13504369 495.77947889 30.1604073 497.28911936 C30.36156129 509.88297902 30.36156129 509.88297902 25.98059082 514.98028564 C24.78635844 516.10130718 23.56382797 517.19309009 22.3125 518.25 C21.1386116 519.40939995 19.97094597 520.57517016 18.8125 521.75 C17.93911987 522.60887817 17.93911987 522.60887817 17.0480957 523.48510742 C15.30060817 525.26209257 13.66826669 527.09927842 12.04296875 528.98828125 C8.49856239 533.06458267 4.83490007 537.01205047 1.125 540.9375 C-0.19830806 542.3433817 -1.52121972 543.74963661 -2.84375 545.15625 C-3.4934375 545.8471875 -4.143125 546.538125 -4.8125 547.25 C-7.51469241 550.13233857 -10.19776048 553.03199294 -12.875 555.9375 C-13.3594458 556.4631958 -13.8438916 556.9888916 -14.34301758 557.53051758 C-15.79158905 559.10330084 -17.23956724 560.67662873 -18.6875 562.25 C-25.20872856 569.33162953 -31.74590814 576.39788377 -38.3125 583.4375 C-38.91690918 584.0857373 -39.52131836 584.73397461 -40.14404297 585.40185547 C-40.70752441 586.00529785 -41.27100586 586.60874023 -41.8515625 587.23046875 C-42.60107178 588.03327271 -42.60107178 588.03327271 -43.36572266 588.85229492 C-44.4540139 590.0031016 -45.56751477 591.13001477 -46.6875 592.25 C-49.81896906 592.1956578 -50.84743802 591.09497123 -53.10546875 588.90625 C-54.03576294 587.86045461 -54.9584066 586.80782409 -55.875 585.75 C-61.56564244 579.37188526 -67.53833769 573.32896022 -73.63549805 567.33984375 C-76.92753156 564.08699649 -80.11917363 560.81127018 -83.13671875 557.30078125 C-87.08742406 552.71212267 -91.37202401 548.49306867 -95.6875 544.25 C-104.25313834 535.82808043 -104.25313834 535.82808043 -108.15625 531.28125 C-112.24952757 526.51833486 -116.71396937 522.15285874 -121.1875 517.75 C-126.34774269 512.67127773 -131.37152824 507.57115881 -136.08837891 502.07617188 C-138.48069861 499.34417929 -141.03514998 496.79328287 -143.625 494.25 C-144.11806641 493.76144531 -144.61113281 493.27289062 -145.11914062 492.76953125 C-146.30623229 491.59396475 -147.49650498 490.42161174 -148.6875 489.25 C-147.06273581 484.19737966 -144.05345353 480.34177749 -140.9375 476.125 C-140.07511719 474.94454102 -140.07511719 474.94454102 -139.1953125 473.74023438 C-137.36542059 471.23898602 -135.52750369 468.74381704 -133.6875 466.25 C-132.51562226 464.65885619 -131.34374722 463.06771038 -130.171875 461.4765625 C-128.42335592 459.10394002 -126.67410765 456.73186743 -124.9230957 454.36108398 C-118.77939499 446.03760744 -112.73039697 437.64679475 -106.6875 429.25 C-99.48686792 419.24449602 -92.24499214 409.27311522 -84.92041016 399.35791016 C-80.41843939 393.25745879 -75.95564841 387.12990967 -71.53369141 380.97119141 C-68.74824822 377.09241266 -65.94020957 373.23374432 -63.08984375 369.40234375 C-62.49953369 368.60256104 -61.90922363 367.80277832 -61.30102539 366.97875977 C-60.17878227 365.45937401 -59.0495383 363.94512279 -57.91186523 362.43725586 C-46.31509403 346.661468 -47.82508682 323.67386925 -46.11748314 304.87120104 C-45.7813215 301.17630998 -45.44204209 297.48170498 -45.10314941 293.7870636 C-44.51764684 287.39944102 -43.93402669 281.01164878 -43.35168457 274.62373734 C-42.50791785 265.36854566 -41.66085085 256.11365822 -40.81294775 246.85884468 C-39.4345684 231.81329911 -38.05828815 216.76756237 -36.68359375 201.72167969 C-36.60151216 200.82331179 -36.51943057 199.9249439 -36.43486166 198.99935274 C-36.10233576 195.35988814 -35.7698131 191.72042325 -35.4372952 188.08095793 C-34.52234897 178.06696078 -33.60697251 168.05300298 -32.69140625 158.0390625 C-32.60942663 157.14240968 -32.527447 156.24575686 -32.44298315 155.32193275 C-31.07228648 140.33048385 -29.7001906 125.33916325 -28.32725906 110.34791887 C-27.48268227 101.1249905 -26.63943413 91.90194246 -25.79795361 82.67873107 C-25.22067054 76.35205982 -24.64216192 70.0255014 -24.06272221 63.69902731 C-23.72941694 60.05938865 -23.39667257 56.41970111 -23.06550598 52.77986717 C-22.38601956 45.31510207 -21.69629617 37.8514588 -20.98432922 30.38971376 C-20.79311198 28.36711169 -20.60597467 26.34411765 -20.4238739 24.32067442 C-20.19479662 21.77944854 -19.95091953 19.2401359 -19.70214844 16.70077515 C-19.64247013 15.99772676 -19.58279182 15.29467838 -19.52130508 14.57032549 C-18.99139126 9.43998819 -17.59397183 5.91816285 -13.6875 2.5 C-9.34184202 -0.21603624 -4.95220889 0.03202722 0 0 Z " fill="#F5C815" transform="translate(600.6875,463.75)"/>
<path d="M0 0 C6.78040821 -0.66068938 10.04544115 0.02926816 15.32714844 4.31713867 C16.40270996 5.24296753 16.40270996 5.24296753 17.5 6.1875 C19.0772773 7.48020167 20.65542349 8.77184381 22.234375 10.0625 C23.02650391 10.72121094 23.81863281 11.37992188 24.63476562 12.05859375 C28.2631465 15.03680233 32.00456012 17.85903974 35.75 20.6875 C41.41364009 25.00203811 47.0374742 29.36285861 52.62866211 33.77075195 C63.24816227 42.14205412 73.92788766 50.43458997 84.6875 58.625 C90.75096575 63.24112095 96.72587257 67.95398384 102.6574707 72.73803711 C107.6210684 76.7294321 112.68506145 80.56694547 117.8046875 84.35546875 C120 86 120 86 121 87 C121.23638629 89.90637688 121.40898469 92.79104392 121.53613281 95.70288086 C121.57774158 96.5996778 121.61935036 97.49647474 121.66222 98.42044735 C122.10600791 108.52816 122.28391355 118.63813464 122.421875 128.75390625 C122.44266491 130.22672215 122.44266491 130.22672215 122.46387482 131.72929192 C122.53618245 136.89394099 122.60375381 142.05862693 122.66748047 147.22338867 C122.73423797 152.54753121 122.81885347 157.87124508 122.9070549 163.19506931 C122.97195345 167.31179868 123.02351781 171.42861677 123.07138824 175.5455761 C123.09662401 177.51088571 123.1269783 179.47613655 123.16255951 181.44128609 C123.21077453 184.16866284 123.24007954 186.89561331 123.26464844 189.62329102 C123.28321396 190.4320015 123.30177948 191.24071198 123.32090759 192.07392883 C123.34187212 197.53361129 123.34187212 197.53361129 121.75041676 199.70470619 C119.56247185 201.32376719 118.37017647 201.38448243 115.6638031 201.40559387 C114.77117956 201.41999575 113.87855602 201.43439762 112.95888329 201.44923592 C111.97528139 201.45027761 110.9916795 201.45131931 109.97827148 201.45239258 C108.40768447 201.47258107 108.40768447 201.47258107 106.80536842 201.49317741 C103.26478827 201.53618989 99.72435559 201.55890015 96.18359375 201.58203125 C91.63500465 201.62932355 87.08651351 201.68362395 82.53802049 201.73935616 C80.43990214 201.76454756 78.34176746 201.78780986 76.24362659 201.81104183 C65.65134314 201.93423409 55.0656132 202.18792351 44.47705078 202.48974609 C29.72454946 202.90970284 14.97344563 203.21946788 0.21642494 203.42910576 C-8.2685635 203.55312773 -16.74712066 203.72886971 -25.22827148 204.01635742 C-32.81191579 204.27323141 -40.39099401 204.43453145 -47.97889906 204.4869712 C-51.93948086 204.51742112 -55.88705981 204.58934103 -59.84345818 204.77954674 C-73.54520604 205.4131514 -85.79324906 205.71793677 -96.62918091 196.31777954 C-103.39496859 190.11172626 -109.24303141 183.12852926 -115 176 C-116.31610426 174.45946736 -117.63997601 172.92549032 -118.97593689 171.40214539 C-119.48037292 170.82378779 -119.98480894 170.2454302 -120.50453091 169.64954662 C-123.34013659 166.52178972 -126.35865703 163.57702862 -129.375 160.625 C-130.61426419 159.41118271 -131.85135741 158.19514371 -133.0859375 156.9765625 C-133.6226709 156.45143066 -134.1594043 155.92629883 -134.71240234 155.38525391 C-137.44138677 152.44929304 -137.64696616 149.40569579 -137.59814453 145.53173828 C-136.34905959 140.24479506 -131.82235545 136.96736497 -127.9375 133.4375 C-126.23605566 131.83439008 -124.53680515 130.2289483 -122.83984375 128.62109375 C-122.01468262 127.84749512 -121.18952148 127.07389648 -120.33935547 126.27685547 C-117.56003026 123.57178482 -115.03453005 120.71273188 -112.52172852 117.76196289 C-110.46655036 115.38233498 -108.25193206 113.19267069 -106 111 C-103.08946199 108.12442341 -100.27575978 105.24125906 -97.625 102.125 C-94.58569277 98.56713798 -91.32636306 95.28558006 -88 92 C-84.10103905 88.14878387 -80.39175698 84.23578266 -76.83984375 80.05859375 C-74.04233133 76.92846838 -71.03375494 74.01314342 -68.04663086 71.06616211 C-65.41959998 68.4607863 -62.89999432 65.81537795 -60.5 63 C-57.65877199 59.66702099 -54.61578377 56.57391199 -51.5 53.5 C-48.40508498 50.44662049 -45.38065723 47.37676315 -42.5625 44.0625 C-39.06289503 39.95573465 -35.24017991 36.21275194 -31.40478516 32.42431641 C-28.05347018 29.09822299 -24.90905648 25.67002216 -21.8515625 22.0703125 C-18.58734875 18.42045324 -15.05122779 15.03450976 -11.55078125 11.61328125 C-8.96886408 9.06154941 -8.96886408 9.06154941 -6.83984375 6.25 C-4.74947595 3.69362664 -3.11983663 2.95328341 0 2 C0 1.34 0 0.68 0 0 Z " fill="#4285F4" transform="translate(862,941)"/>
<path d="M0 0 C1.1446875 0.08121094 1.1446875 0.08121094 2.3125 0.1640625 C2.869375 0.23367188 3.42625 0.30328125 4 0.375 C4 1.035 4 1.695 4 2.375 C4.70640625 2.57996094 5.4128125 2.78492188 6.140625 2.99609375 C9.83181379 4.77613424 12.10429091 7.40270339 14.75 10.4375 C15.80963007 11.62119706 16.87083913 12.80348244 17.93359375 13.984375 C18.4529248 14.56380859 18.97225586 15.14324219 19.50732422 15.74023438 C21.53757058 17.96374266 23.66355859 20.07910465 25.8125 22.1875 C28.43332813 24.77088772 30.92538936 27.38723559 33.3125 30.1875 C36.37500183 33.76398815 39.65280287 37.06889799 43 40.375 C46.89896506 44.22621289 50.60824307 48.1392174 54.16015625 52.31640625 C56.95766867 55.44653162 59.96624506 58.36185658 62.95336914 61.30883789 C66.17998653 64.50885771 69.17930461 67.82572272 72.125 71.28125 C74.48345274 73.91485556 76.9844568 76.39326218 79.5 78.875 C82.59491502 81.92837951 85.61934277 84.99823685 88.4375 88.3125 C91.93643349 92.41847737 95.75832589 96.16081002 99.59301758 99.94848633 C102.9706452 103.30066643 106.14241319 106.75705648 109.2265625 110.3828125 C111.39113418 112.81437981 113.68429453 115.08711081 116 117.375 C119.49676953 120.82982927 122.77433883 124.35210962 125.9296875 128.1171875 C127.66474198 130.00937899 129.42789636 131.71699693 131.3203125 133.4453125 C131.91416748 133.99985107 132.50802246 134.55438965 133.11987305 135.12573242 C134.30619376 136.22664442 135.51034907 137.30873041 136.73364258 138.3684082 C139.18457726 140.66730246 140.78156453 142.30801796 141.46777344 145.65991211 C141.57146715 148.96228748 141.41391101 151.52383714 139.9609375 154.51171875 C139.43757813 155.02347656 138.91421875 155.53523438 138.375 156.0625 C137.74335937 156.70574219 137.11171875 157.34898437 136.4609375 158.01171875 C135.64882813 158.79160156 134.83671875 159.57148437 134 160.375 C132.27595963 162.09005549 130.55919018 163.81222682 128.84228516 165.53442383 C127.64697244 166.72862772 126.44641083 167.91760953 125.23974609 169.1003418 C120.19387323 174.06620011 115.40093695 179.23615206 111.09598351 184.8642025 C104.2482786 193.81274937 97.30436407 202.14541899 85.73062134 204.13833618 C77.86694135 204.87998761 70.04023654 204.72225699 62.15599847 204.43581033 C58.12887579 204.31179481 54.10129451 204.30546417 50.07255554 204.28471375 C42.40707853 204.22797186 34.7473632 204.06905836 27.08435076 203.87192267 C18.5828306 203.65798464 10.08131939 203.5567299 1.5777266 203.46653199 C-13.20434662 203.30726489 -27.98228638 203.04587832 -42.76143432 202.71471238 C-53.30664529 202.47919192 -63.85046125 202.29777418 -74.39774311 202.18790257 C-79.08133849 202.13801829 -83.76482803 202.0785982 -88.44834328 202.02178001 C-90.931896 201.9944836 -93.41550518 201.97187653 -95.89914513 201.95421791 C-99.26355114 201.92946685 -102.62729101 201.88710407 -105.99145508 201.84057617 C-106.97386736 201.83834486 -107.95627964 201.83611355 -108.96846199 201.83381462 C-109.85988836 201.81821558 -110.75131474 201.80261654 -111.66975403 201.7865448 C-112.43948453 201.77940051 -113.20921503 201.77225622 -114.0022707 201.76489544 C-116.57181048 201.26340015 -117.46185856 200.47228093 -119 198.375 C-119.25682885 195.50617802 -119.33041973 192.86327563 -119.26464844 189.99829102 C-119.25693924 189.14240387 -119.24923004 188.28651672 -119.24128723 187.4046936 C-119.21192348 184.5623812 -119.1608324 181.72089791 -119.109375 178.87890625 C-119.08384753 176.89087929 -119.05955435 174.90283612 -119.03643799 172.91477966 C-118.98477082 168.73230687 -118.92329199 164.55013746 -118.85400391 160.36791992 C-118.76616849 155.06439117 -118.69416214 149.76081902 -118.62871933 144.45697117 C-118.56511609 139.34754055 -118.49399686 134.2382227 -118.421875 129.12890625 C-118.40244465 127.70421115 -118.40244465 127.70421115 -118.38262177 126.25073433 C-118.30590698 120.84473607 -118.2028072 115.44032768 -118.06343079 110.03557205 C-118.02001072 108.21433951 -117.98487872 106.39289571 -117.95683289 104.57136154 C-117.91218969 101.82256049 -117.83864306 99.07585728 -117.75878906 96.32788086 C-117.75100811 95.49960816 -117.74322716 94.67133547 -117.73521042 93.8179636 C-117.58496173 89.70935043 -117.34695543 87.85131526 -114.86029053 84.43751526 C-112.06668185 82.05932348 -109.14649541 80.2614572 -106 78.375 C-103.39497966 76.51407249 -100.85834495 74.56575365 -98.3125 72.625 C-96.93366636 71.59886076 -95.55475917 70.57282034 -94.17578125 69.546875 C-90.02927209 66.42757144 -86.00722458 63.17032108 -82 59.875 C-76.07176993 55.00266107 -70.02651613 50.33248433 -63.8659668 45.75830078 C-58.86788479 42.04305368 -53.95443666 38.23337054 -49.06884766 34.37182617 C-44.80172483 30.99989124 -40.50262488 27.67230146 -36.18603516 24.36376953 C-30.58123916 20.06343615 -25.0103223 15.71973542 -19.44238281 11.37182617 C-18.00417044 10.25065815 -16.56298233 9.13329553 -15.11865234 8.02001953 C-13.68467438 6.90661281 -12.2633273 5.77677819 -10.85400391 4.63232422 C-4.49210037 -0.42113441 -4.49210037 -0.42113441 0 0 Z " fill="#4285F4" transform="translate(414,940.625)"/>
<path d="" fill="#F1C61C" transform="translate(0,0)"/>
</svg>
